<?xml version="1.0" encoding="utf-8"?>
<!-- Generator: Adobe Illustrator 17.0.2, SVG Export Plug-In . SVG Version: 6.00 Build 0)  -->
<!DOCTYPE svg PUBLIC "-//W3C//DTD SVG 1.1//EN" "http://www.w3.org/Graphics/SVG/1.1/DTD/svg11.dtd">
<svg version="1.1" id="Layer_1" xmlns="http://www.w3.org/2000/svg" xmlns:xlink="http://www.w3.org/1999/xlink" x="0px" y="0px"
	 width="165.496px" height="93.146px" viewBox="0 0 165.496 93.146" style="enable-background:new 0 0 165.496 93.146;"
	 xml:space="preserve">
<g>
	<path d="M20.733,71.092c-4.243,0-7.365-1.346-9.366-4.042l-3.202,3.242H0.84c2.562-6.538,4.309-12.408,5.244-17.611l7.605-42.828
		h9.766l-3.362,19.172c2.481-1.601,5.51-2.402,9.085-2.402c5.364,0,9.593,1.788,12.688,5.364c2.935,3.389,4.403,7.819,4.403,13.289
		c0,7.125-2.481,13.208-7.445,18.251S27.831,71.092,20.733,71.092z M25.296,35.069c-2.695,0-5.017,1.147-6.964,3.442l-3.883,21.174
		c1.014,2.081,3.028,3.121,6.044,3.121c4.669,0,8.406-1.681,11.208-5.043c2.615-3.175,3.922-7.138,3.922-11.888
		C35.623,38.671,32.181,35.069,25.296,35.069z"/>
	<path d="M67.724,66.93c-1.575,2.509-3.962,3.763-7.165,3.763c-2.401,0-4.296-0.787-5.684-2.362
		c-1.388-1.574-2.082-3.615-2.082-6.123c0-3.256,0.641-7.938,1.921-14.049l8.045-38.305h9.926l-8.246,39.906
		c-1.174,5.684-1.761,9.739-1.761,12.168c0,1.548,0.48,2.769,1.441,3.662C65.082,66.483,66.283,66.93,67.724,66.93z"/>
	<path d="M77.73,54.242c0-7.739,2.361-14.276,7.084-19.613c4.723-5.336,10.7-8.005,17.932-8.005c5.524,0,9.78,1.435,12.769,4.303
		c2.988,2.869,4.482,6.945,4.482,12.228c0,7.898-2.335,14.529-7.004,19.893c-4.67,5.363-10.701,8.045-18.092,8.045
		c-5.417,0-9.633-1.446-12.648-4.342C79.238,63.854,77.73,59.686,77.73,54.242z M88.137,53.762c0,6.11,2.628,9.166,7.885,9.166
		c4.163,0,7.458-1.928,9.886-5.784c2.428-3.855,3.643-8.426,3.643-13.709c0-5.764-2.629-8.646-7.886-8.646
		c-4.082,0-7.358,1.901-9.826,5.704C89.371,44.295,88.137,48.718,88.137,53.762z"/>
	<path d="M161.384,34.869c0.587,1.334,0.881,2.936,0.881,4.803c0,4.163-0.9,7.765-2.702,10.806c-1.801,3.043-4.77,5.512-8.905,7.405
		c-4.137,1.896-6.404,3.176-6.805,3.843c1.814-0.347,3.229-0.521,4.242-0.521c2.988,0,5.537,0.915,7.646,2.741
		c2.107,1.828,3.162,4.157,3.162,6.985c0,5.177-1.821,9.165-5.464,11.968c-3.643,2.802-8.92,4.203-15.83,4.203
		c-2.588,0-5.424-0.508-8.506-1.521c-3.082-1.015-5.597-2.269-7.545-3.763l4.363-7.565c3.815,2.723,7.778,4.084,11.888,4.084
		c7.418,0,11.128-2.002,11.128-6.004c0-0.855-0.381-1.562-1.142-2.122s-1.915-0.987-3.462-1.28l-7.645-1.361
		c-2.855-0.881-4.283-2.535-4.283-4.963c0-1.414,1.174-2.842,3.521-4.283c-2.881-0.826-5.236-2.381-7.064-4.663
		c-1.828-2.281-2.741-4.823-2.741-7.625c0-5.764,1.907-10.44,5.724-14.029c3.815-3.589,8.712-5.384,14.689-5.384
		c3.683,0,6.791,0.788,9.326,2.362l3.762-4.083l5.885,5.844L161.384,34.869z M136.289,45.156c0,2.135,0.48,3.882,1.44,5.243
		c0.96,1.361,2.282,2.042,3.962,2.042c2.936,0,5.364-1.167,7.285-3.503c1.922-2.334,2.883-5.169,2.883-8.505
		c0-3.762-1.962-5.644-5.885-5.644c-2.961,0-5.316,0.967-7.064,2.902C137.162,39.626,136.289,42.114,136.289,45.156z"/>
</g>
</svg>
