<svg viewBox="-88.6 101 70.6 70.6">
<path d="M-53.3 107.9c7.6 0 14.7 3 20.1 8.3 5.4 5.4 8.3 12.5 8.3 20.1s-3 14.7-8.3 20.1c-5.4 5.4-12.5 8.3-20.1 8.3s-14.7-3-20.1-8.3c-5.4-5.4-8.3-12.5-8.3-20.1s3-14.7 8.3-20.1c5.4-5.4 12.5-8.3 20.1-8.3m0-6.9c-19.5 0-35.3 15.8-35.3 35.3s15.8 35.3 35.3 35.3S-18 155.8-18 136.3-33.8 101-53.3 101zm-7.3 21.5c0 2.2-1.7 3.9-3.9 3.9s-3.9-1.8-3.9-3.9c0-2.2 1.7-3.9 3.9-3.9s3.9 1.8 3.9 3.9zm-.6 6.8h-6.6v21.3h6.6v-21.3zm10.6 0H-57v21.3h6.3v-11.2c0-3 1.4-4.8 4-4.8 2.4 0 3.6 1.7 3.6 4.8v11.2h6.6v-13.5c0-5.7-3.2-8.5-7.7-8.5s-6.4 3.5-6.4 3.5v-2.8z"/>
</svg>
