<?xml version="1.0" encoding="utf-8"?>
<!-- Generator: Adobe Illustrator 18.1.1, SVG Export Plug-In . SVG Version: 6.00 Build 0)  -->
<!DOCTYPE svg PUBLIC "-//W3C//DTD SVG 1.1//EN" "http://www.w3.org/Graphics/SVG/1.1/DTD/svg11.dtd">
<svg version="1.1" id="Layer_1" xmlns="http://www.w3.org/2000/svg" xmlns:xlink="http://www.w3.org/1999/xlink" x="0px" y="0px"
	 viewBox="-88.6 101 70.6 70.6" enable-background="new -88.6 101 70.6 70.6" xml:space="preserve">
<path id="linkedin-circle-outline-icon" d="M-53.3,107.9c7.6,0,14.7,3,20.1,8.3c5.4,5.4,8.3,12.5,8.3,20.1s-3,14.7-8.3,20.1
	c-5.4,5.4-12.5,8.3-20.1,8.3s-14.7-3-20.1-8.3c-5.4-5.4-8.3-12.5-8.3-20.1s3-14.7,8.3-20.1C-68,110.8-60.9,107.9-53.3,107.9
	 M-53.3,101c-19.5,0-35.3,15.8-35.3,35.3s15.8,35.3,35.3,35.3S-18,155.8-18,136.3S-33.8,101-53.3,101L-53.3,101z M-60.6,122.5
	c0,2.2-1.7,3.9-3.9,3.9c-2.2,0-3.9-1.8-3.9-3.9c0-2.2,1.7-3.9,3.9-3.9C-62.3,118.6-60.6,120.4-60.6,122.5z M-61.2,129.3h-6.6v21.3
	h6.6V129.3z M-50.6,129.3H-57v21.3h6.3c0,0,0-7.9,0-11.2c0-3,1.4-4.8,4-4.8c2.4,0,3.6,1.7,3.6,4.8c0,3.1,0,11.2,0,11.2h6.6
	c0,0,0-7.8,0-13.5c0-5.7-3.2-8.5-7.7-8.5s-6.4,3.5-6.4,3.5L-50.6,129.3L-50.6,129.3z"/>
</svg>
