<?xml version="1.0" encoding="utf-8"?>
<!-- Generator: Adobe Illustrator 18.1.1, SVG Export Plug-In . SVG Version: 6.00 Build 0)  -->
<!DOCTYPE svg PUBLIC "-//W3C//DTD SVG 1.1//EN" "http://www.w3.org/Graphics/SVG/1.1/DTD/svg11.dtd">
<svg version="1.1" id="Layer_1" xmlns="http://www.w3.org/2000/svg" xmlns:xlink="http://www.w3.org/1999/xlink" x="0px" y="0px"
	 viewBox="0 0 93.1 63.3" enable-background="new 0 0 93.1 63.3" xml:space="preserve">
<path d="M56.5,63.3h13.9l21.2-38.2c1-2.3,1.5-4.9,1.5-7.7c0-4.8-1.9-8.9-5.7-12.3C83.6,1.7,79,0,73.6,0c-5.2,0-9.7,1.7-13.5,5.1
	c-3.8,3.4-5.7,7.5-5.7,12.3c0,5,1.9,9.2,5.6,12.5c2.6,2.3,5.5,3.8,8.8,4.4L56.5,63.3z M2,63.3h14l21.2-38.2c1-2.3,1.5-4.9,1.5-7.7
	c0-4.8-1.9-8.9-5.7-12.3C29.2,1.7,24.6,0,19.2,0C14,0,9.5,1.7,5.7,5.1C1.9,8.5,0,12.6,0,17.4c0,5,1.9,9.2,5.6,12.5
	c2.5,2.4,5.4,3.8,8.6,4.4L2,63.3z"/>
</svg>
