<?xml version="1.0" encoding="utf-8"?>
<!-- Generator: Adobe Illustrator 18.0.0, SVG Export Plug-In . SVG Version: 6.00 Build 0)  -->
<!DOCTYPE svg PUBLIC "-//W3C//DTD SVG 1.1//EN" "http://www.w3.org/Graphics/SVG/1.1/DTD/svg11.dtd">
<svg version="1.1" id="Layer_1" xmlns="http://www.w3.org/2000/svg" xmlns:xlink="http://www.w3.org/1999/xlink" x="0px" y="0px"
	 viewBox="0 0 93.3 63.3" enable-background="new 0 0 93.3 63.3" xml:space="preserve">
<path d="M36.6,0H22.7L1.5,38.2c-1,2.3-1.5,4.9-1.5,7.7c0,4.8,1.9,8.9,5.7,12.3c3.8,3.4,8.4,5.1,13.8,5.1c5.2,0,9.7-1.7,13.5-5.1
	c3.8-3.4,5.7-7.5,5.7-12.3c0-5-1.9-9.2-5.6-12.5c-2.6-2.3-5.5-3.8-8.8-4.4L36.6,0z M91.1,0H77.1L55.9,38.2c-1,2.3-1.5,4.9-1.5,7.7
	c0,4.8,1.9,8.9,5.7,12.3c3.8,3.4,8.4,5.1,13.8,5.1c5.2,0,9.7-1.7,13.5-5.1c3.8-3.4,5.7-7.5,5.7-12.3c0-5-1.9-9.2-5.6-12.5
	C85,31,82.1,29.6,78.9,29L91.1,0z"/>
</svg>
