<?xml version="1.0" encoding="utf-8"?>
<!-- Generator: Adobe Illustrator 18.1.1, SVG Export Plug-In . SVG Version: 6.00 Build 0)  -->
<!DOCTYPE svg PUBLIC "-//W3C//DTD SVG 1.1//EN" "http://www.w3.org/Graphics/SVG/1.1/DTD/svg11.dtd">
<svg version="1.1" id="Layer_1" xmlns="http://www.w3.org/2000/svg" xmlns:xlink="http://www.w3.org/1999/xlink" x="0px" y="0px"
	 width="60px" height="40.7px" viewBox="0 0 60 40.7" enable-background="new 0 0 60 40.7" xml:space="preserve">
<path d="M23.6,0h-9L1,24.5c-0.6,1.5-1,3.2-1,5c0,3.1,1.2,5.7,3.7,7.9s5.4,3.3,8.9,3.3c3.4,0,6.3-1.1,8.7-3.3s3.7-4.8,3.7-7.9
	c0-3.2-1.2-5.9-3.6-8.1c-1.7-1.5-3.5-2.4-5.7-2.8L23.6,0z M58.7,0h-9L36.1,24.5c-0.6,1.5-1,3.2-1,5c0,3.1,1.2,5.7,3.7,7.9
	c2.5,2.2,5.4,3.3,8.9,3.3c3.4,0,6.3-1.1,8.7-3.3c2.4-2.2,3.7-4.8,3.7-7.9c0-3.2-1.2-5.9-3.6-8.1c-1.6-1.5-3.5-2.4-5.5-2.8L58.7,0z"
	/>
</svg>
