<?xml version="1.0" encoding="utf-8"?>
<!-- Generator: Adobe Illustrator 18.1.1, SVG Export Plug-In . SVG Version: 6.00 Build 0)  -->
<!DOCTYPE svg PUBLIC "-//W3C//DTD SVG 1.1//EN" "http://www.w3.org/Graphics/SVG/1.1/DTD/svg11.dtd">
<svg version="1.1" id="Layer_1" xmlns="http://www.w3.org/2000/svg" xmlns:xlink="http://www.w3.org/1999/xlink" x="0px" y="0px"
	 width="60px" height="40.7px" viewBox="0 0 60 40.7" enable-background="new 0 0 60 40.7" xml:space="preserve">
<path d="M36.4,40.7h9L59,16.1c0.6-1.5,1-3.2,1-5c0-3.1-1.2-5.7-3.7-7.9S50.9,0,47.4,0c-3.4,0-6.3,1.1-8.7,3.3
	c-2.4,2.2-3.7,4.8-3.7,7.9c0,3.2,1.2,5.9,3.6,8.1c1.7,1.5,3.5,2.4,5.7,2.8L36.4,40.7z M1.3,40.7h9l13.7-24.5c0.6-1.5,1-3.2,1-5
	c0-3.1-1.2-5.7-3.7-7.9S15.8,0,12.4,0C9,0,6.1,1.1,3.7,3.3C1.3,5.5,0,8.1,0,11.2c0,3.2,1.2,5.9,3.6,8.1c1.6,1.5,3.5,2.4,5.5,2.8
	L1.3,40.7z"/>
</svg>
